<svg width="17" height="17" viewBox="0 0 17 17" fill="none" xmlns="http://www.w3.org/2000/svg">
<g clip-path="url(#clip0_101_1877)">
<path d="M3.1875 14.875C2.89531 14.875 2.64518 14.771 2.43711 14.5629C2.22904 14.3548 2.125 14.1047 2.125 13.8125V3.1875C2.125 2.89531 2.22904 2.64518 2.43711 2.43711C2.64518 2.22904 2.89531 2.125 3.1875 2.125H13.8125C14.1047 2.125 14.3548 2.22904 14.5629 2.43711C14.771 2.64518 14.875 2.89531 14.875 3.1875V13.8125C14.875 14.1047 14.771 14.3548 14.5629 14.5629C14.3548 14.771 14.1047 14.875 13.8125 14.875H3.1875ZM3.1875 10.1469H13.8125V3.1875H3.1875V10.1469Z" fill="#666666"/>
</g>
<defs>
<clipPath id="clip0_101_1877">
<rect width="17" height="17" fill="white"/>
</clipPath>
</defs>
</svg>
