<svg width="18" height="18" viewBox="0 0 18 18" fill="none" xmlns="http://www.w3.org/2000/svg">
<path d="M15.987 3.04133C14.667 2.60858 11.25 1.48883 11.25 1.50008C11.25 2.09682 11.013 2.66912 10.591 3.09107C10.169 3.51303 9.59675 3.75008 9.00001 3.75008C8.40327 3.75008 7.83098 3.51303 7.40902 3.09107C6.98706 2.66912 6.75001 2.09682 6.75001 1.50008C6.75001 1.48883 3.33301 2.60858 2.01226 3.04133C1.86262 3.09038 1.7324 3.18565 1.64035 3.31342C1.5483 3.44118 1.49916 3.59486 1.50001 3.75233V6.53933C1.50004 6.65326 1.52603 6.76568 1.57599 6.86806C1.62595 6.97044 1.69858 7.0601 1.78837 7.13022C1.87816 7.20034 1.98274 7.24909 2.09417 7.27276C2.20561 7.29643 2.32097 7.2944 2.43151 7.26683L4.50001 6.75008V15.7501C4.50001 15.949 4.57903 16.1398 4.71968 16.2804C4.86033 16.4211 5.0511 16.5001 5.25001 16.5001H12.75C12.9489 16.5001 13.1397 16.4211 13.2803 16.2804C13.421 16.1398 13.5 15.949 13.5 15.7501V6.75008L15.5685 7.26683C15.679 7.2944 15.7944 7.29643 15.9058 7.27276C16.0173 7.24909 16.1219 7.20034 16.2117 7.13022C16.3014 7.0601 16.3741 6.97044 16.424 6.86806C16.474 6.76568 16.5 6.65326 16.5 6.53933V3.75233C16.5008 3.59477 16.4516 3.44102 16.3594 3.31324C16.2672 3.18546 16.1368 3.09025 15.987 3.04133Z" fill="#3f6212"/>
</svg>
