<svg width="18" height="18" viewBox="0 0 18 18" fill="none" xmlns="http://www.w3.org/2000/svg">
<path d="M15.75 7.5H2.25C2.05109 7.5 1.86032 7.57902 1.71967 7.71967C1.57902 7.86032 1.5 8.05109 1.5 8.25C1.50003 9.56649 1.8466 10.8598 2.50486 11.9999C3.16312 13.14 4.10988 14.0868 5.25 14.745V15.75C5.25 15.9489 5.32902 16.1397 5.46967 16.2803C5.61032 16.421 5.80109 16.5 6 16.5H12C12.1989 16.5 12.3897 16.421 12.5303 16.2803C12.671 16.1397 12.75 15.9489 12.75 15.75V14.745C13.8901 14.0868 14.8369 13.14 15.4951 11.9999C16.1534 10.8598 16.5 9.56649 16.5 8.25C16.5 8.05109 16.421 7.86032 16.2803 7.71967C16.1397 7.57902 15.9489 7.5 15.75 7.5ZM6.75 6.75V5.9475C6.75047 5.06491 6.40596 4.2171 5.79 3.585C5.61611 3.40929 5.47884 3.20081 5.38614 2.97164C5.29345 2.74248 5.24717 2.49719 5.25 2.25V1.5H3.75V2.25C3.7456 3.13777 4.0904 3.99169 4.71 4.6275C5.05754 4.97874 5.25171 5.45339 5.25 5.9475V6.75H6.75ZM9.75 6.75V5.9475C9.75047 5.06491 9.40596 4.2171 8.79 3.585C8.61611 3.40929 8.47884 3.20081 8.38614 2.97164C8.29345 2.74248 8.24717 2.49719 8.25 2.25V1.5H6.75V2.25C6.74952 3.13259 7.09403 3.9804 7.71 4.6125C7.88389 4.78821 8.02116 4.99669 8.11386 5.22586C8.20655 5.45502 8.25283 5.70031 8.25 5.9475V6.75H9.75ZM12.75 6.75V5.9475C12.7505 5.06491 12.406 4.2171 11.79 3.585C11.6161 3.40929 11.4788 3.20081 11.3861 2.97164C11.2934 2.74248 11.2472 2.49719 11.25 2.25V1.5H9.75V2.25C9.74952 3.13259 10.094 3.9804 10.71 4.6125C10.8839 4.78821 11.0212 4.99669 11.1139 5.22586C11.2066 5.45502 11.2528 5.70031 11.25 5.9475V6.75H12.75Z" fill="#333333"/>
</svg>
