<svg width="17" height="17" viewBox="0 0 17 17" fill="none" xmlns="http://www.w3.org/2000/svg">
<path d="M8.50008 1.41669C4.59433 1.41669 1.41675 4.59427 1.41675 8.50002C1.41675 12.4058 4.59433 15.5834 8.50008 15.5834C12.4058 15.5834 15.5834 12.4058 15.5834 8.50002C15.5834 4.59427 12.4058 1.41669 8.50008 1.41669ZM9.20842 11.9815V12.75H7.79175V11.985C6.13496 11.7251 5.66675 10.5669 5.66675 9.91669H7.08342C7.09121 10.018 7.19604 10.625 8.50008 10.625C9.47758 10.625 9.91675 10.2106 9.91675 9.91669C9.91675 9.68719 9.91675 9.20835 8.50008 9.20835C6.03508 9.20835 5.66675 7.87669 5.66675 7.08335C5.66675 6.17102 6.39562 5.25302 7.79175 5.01856V4.25852H9.20842V5.04406C10.4367 5.33448 10.9084 6.3566 10.9084 7.08335H10.2001L9.49175 7.0961C9.48183 6.82694 9.33946 6.37502 8.50008 6.37502C7.57996 6.37502 7.08342 6.74052 7.08342 7.08335C7.08342 7.34827 7.08342 7.79169 8.50008 7.79169C10.9651 7.79169 11.3334 9.12335 11.3334 9.91669C11.3334 10.829 10.6045 11.747 9.20842 11.9815Z" fill="#555555"/>
</svg>
