<svg width="8" height="12" viewBox="0 0 8 12" fill="none" xmlns="http://www.w3.org/2000/svg">
<path d="M1.72021 12C1.31507 12 0.96875 11.8544 0.68125 11.5633C0.39375 11.2721 0.25 10.9221 0.25 10.5133C0.25 10.1044 0.3952 9.75625 0.6856 9.46875C0.976012 9.18125 1.32512 9.0375 1.73292 9.0375C2.13181 9.0375 2.47812 9.18308 2.77187 9.47423C3.06562 9.76538 3.2125 10.1154 3.2125 10.5242C3.2125 10.9331 3.06507 11.2813 2.77021 11.5688C2.47536 11.8563 2.12536 12 1.72021 12ZM6.23896 12C5.83382 12 5.4875 11.8544 5.2 11.5633C4.9125 11.2721 4.76875 10.9221 4.76875 10.5133C4.76875 10.1044 4.91395 9.75625 5.20435 9.46875C5.49475 9.18125 5.84386 9.0375 6.25167 9.0375C6.65056 9.0375 6.99687 9.18308 7.29062 9.47423C7.58437 9.76538 7.73125 10.1154 7.73125 10.5242C7.73125 10.9331 7.58382 11.2813 7.28896 11.5688C6.99411 11.8563 6.64411 12 6.23896 12ZM1.72021 7.48125C1.31507 7.48125 0.96875 7.34319 0.68125 7.06708C0.39375 6.79098 0.25 6.43473 0.25 5.99833C0.25 5.59053 0.3952 5.24199 0.6856 4.9527C0.976012 4.6634 1.32512 4.51875 1.73292 4.51875C2.13181 4.51875 2.47812 4.66395 2.77187 4.95435C3.06562 5.24475 3.2125 5.59386 3.2125 6.00167C3.2125 6.43806 3.06507 6.79375 2.77021 7.06875C2.47536 7.34375 2.12536 7.48125 1.72021 7.48125ZM6.23896 7.48125C5.83382 7.48125 5.4875 7.34319 5.2 7.06708C4.9125 6.79098 4.76875 6.43473 4.76875 5.99833C4.76875 5.59053 4.91395 5.24199 5.20435 4.9527C5.49475 4.6634 5.84386 4.51875 6.25167 4.51875C6.65056 4.51875 6.99687 4.66395 7.29062 4.95435C7.58437 5.24475 7.73125 5.59386 7.73125 6.00167C7.73125 6.43806 7.58382 6.79375 7.28896 7.06875C6.99411 7.34375 6.64411 7.48125 6.23896 7.48125ZM1.72021 2.9625C1.31507 2.9625 0.96875 2.81693 0.68125 2.52578C0.39375 2.23463 0.25 1.88463 0.25 1.47578C0.25 1.06693 0.3952 0.71875 0.6856 0.43125C0.976012 0.14375 1.32512 0 1.73292 0C2.13181 0 2.47812 0.145575 2.77187 0.436725C3.06562 0.727875 3.2125 1.07787 3.2125 1.48672C3.2125 1.89557 3.06507 2.24375 2.77021 2.53125C2.47536 2.81875 2.12536 2.9625 1.72021 2.9625ZM6.23896 2.9625C5.83382 2.9625 5.4875 2.81693 5.2 2.52578C4.9125 2.23463 4.76875 1.88463 4.76875 1.47578C4.76875 1.06693 4.91395 0.71875 5.20435 0.43125C5.49475 0.14375 5.84386 0 6.25167 0C6.65056 0 6.99687 0.145575 7.29062 0.436725C7.58437 0.727875 7.73125 1.07787 7.73125 1.48672C7.73125 1.89557 7.58382 2.24375 7.28896 2.53125C6.99411 2.81875 6.64411 2.9625 6.23896 2.9625Z" fill="#808080"/>
</svg>
