<svg width="17" height="17" viewBox="0 0 17 17" fill="none" xmlns="http://www.w3.org/2000/svg">
    <path
        d="M11.3333 10.625C11.3333 10.4371 11.2587 10.257 11.1258 10.1241C10.993 9.99128 10.8128 9.91666 10.625 9.91666H6.37496C5.98467 9.91666 5.66663 10.234 5.66663 10.625V12.0417H11.3333V10.625ZM5.66663 13.4583H11.3333V15.5833H5.66663V13.4583Z"
        fill="#666666" />
    <path
        d="M14.875 8.50002C14.875 6.3984 13.34 4.65235 11.3333 4.31377V3.54169C11.3333 2.3701 10.3799 1.41669 9.20833 1.41669H7.79167C6.62008 1.41669 5.66667 2.3701 5.66667 3.54169V4.31377C3.65996 4.65235 2.125 6.3984 2.125 8.50002V14.1667C2.125 14.948 2.76037 15.5834 3.54167 15.5834H4.25V10.625C4.25 9.45344 5.20342 8.50002 6.375 8.50002H10.625C11.7966 8.50002 12.75 9.45344 12.75 10.625V15.5834H13.4583C14.2396 15.5834 14.875 14.948 14.875 14.1667V8.50002ZM7.08333 3.54169C7.08333 3.15069 7.40137 2.83335 7.79167 2.83335H9.20833C9.39619 2.83335 9.57636 2.90798 9.7092 3.04082C9.84204 3.17366 9.91667 3.35383 9.91667 3.54169V4.25002H7.08333V3.54169Z"
        fill="#666666" />
</svg>