<svg width="22" height="22" viewBox="0 0 22 22" fill="none" xmlns="http://www.w3.org/2000/svg">
<path d="M18.2417 19.2271L12.2146 13.2C11.7563 13.5972 11.2218 13.9066 10.6114 14.1281C10.0009 14.3496 9.35125 14.4604 8.6625 14.4604C7.01003 14.4604 5.61149 13.8875 4.46689 12.7416C3.3223 11.5958 2.75 10.2132 2.75 8.59372C2.75 6.97427 3.32292 5.59163 4.46875 4.4458C5.61458 3.29997 7.00104 2.72705 8.62813 2.72705C10.2552 2.72705 11.6378 3.29997 12.776 4.4458C13.9142 5.59163 14.4833 6.97542 14.4833 8.59716C14.4833 9.25181 14.3764 9.88469 14.1625 10.4958C13.9486 11.1069 13.6278 11.6798 13.2 12.2146L19.25 18.2187L18.2417 19.2271ZM8.63958 13.0854C9.8809 13.0854 10.936 12.6461 11.8049 11.7677C12.6739 10.8892 13.1083 9.83122 13.1083 8.59372C13.1083 7.35622 12.6739 6.29823 11.8049 5.41976C10.936 4.54129 9.8809 4.10205 8.63958 4.10205C7.38554 4.10205 6.31959 4.54129 5.44175 5.41976C4.56392 6.29823 4.125 7.35622 4.125 8.59372C4.125 9.83122 4.56392 10.8892 5.44175 11.7677C6.31959 12.6461 7.38554 13.0854 8.63958 13.0854Z" fill="#808080"/>
</svg>
