<svg width="17" height="17" viewBox="0 0 17 17" fill="none" xmlns="http://www.w3.org/2000/svg">
<path d="M15.5785 5.63127C15.5773 5.58014 15.5704 5.52929 15.5579 5.47969C15.553 5.46198 15.543 5.44498 15.5367 5.42728C15.5218 5.3869 15.5083 5.34723 15.4871 5.3104C15.4757 5.29128 15.4602 5.27569 15.4467 5.25727C15.424 5.2254 15.4021 5.19282 15.3745 5.16519C15.3582 5.14961 15.3369 5.13686 15.3192 5.12198C15.2916 5.09932 15.2661 5.07453 15.2342 5.0554C15.2314 5.05328 15.2278 5.05328 15.2243 5.05115L15.2186 5.0469L8.8585 1.51232C8.7534 1.45404 8.63522 1.4234 8.51505 1.42328C8.39487 1.42316 8.27663 1.45355 8.17142 1.51161L1.78154 5.04619C1.77941 5.04832 1.77729 5.05115 1.77375 5.05327L1.76666 5.05611C1.74187 5.07028 1.72346 5.09082 1.70008 5.10782C1.67458 5.12694 1.64766 5.14394 1.625 5.1659C1.60375 5.18786 1.58746 5.21336 1.56904 5.23815C1.54991 5.26294 1.52866 5.2849 1.51308 5.31182C1.49466 5.34228 1.48475 5.37698 1.47129 5.41028C1.46137 5.43365 1.44862 5.45561 1.44225 5.48111C1.43001 5.5298 1.42313 5.57968 1.42171 5.62986C1.421 5.6419 1.41675 5.65253 1.41675 5.66528V11.3334C1.41675 11.5905 1.55629 11.8278 1.78154 11.9524L8.14096 15.4849L8.14167 15.4856L8.14308 15.4863L8.15725 15.4941C8.18771 15.5111 8.221 15.5203 8.25287 15.5324C8.27554 15.5416 8.2975 15.5536 8.32158 15.56C8.43913 15.5903 8.56245 15.5903 8.68 15.56C8.70337 15.5536 8.72533 15.5416 8.74871 15.5324C8.78058 15.5203 8.81387 15.5118 8.84433 15.4941L8.8585 15.4863L8.85992 15.4856L8.86062 15.4849L15.22 11.9524C15.4439 11.8278 15.5834 11.5905 15.5834 11.3334V5.66528C15.5834 5.65323 15.5792 5.64332 15.5785 5.63127ZM8.48025 8.40936L3.58283 5.67023L5.53925 4.5879L10.38 7.35394L8.48025 8.40936ZM8.51425 2.94173L13.4166 5.66669L11.8271 6.54998L6.98921 3.78536L8.51425 2.94173ZM9.20842 13.6716L9.20983 9.64894L11.3334 8.46036V10.625L12.7501 9.91669V7.66773L14.1667 6.87511V10.9162L9.20842 13.6716Z" fill="#555555"/>
</svg>
