<svg width="43" height="31" viewBox="0 0 43 31" fill="none" xmlns="http://www.w3.org/2000/svg">
    <path
        d="M42.4211 15.5C42.4211 27.2142 32.9248 31 21.2105 31C9.49628 31 0 27.2142 0 15.5C0 3.78575 9.49628 0 21.2105 0C32.9248 0 42.4211 3.78575 42.4211 15.5Z"
        fill="#464646" />
    <path
        d="M24.2931 9.46572C25.3943 9.37921 26.2168 8.4164 26.1303 7.31523C26.0438 6.21405 25.081 5.3915 23.9798 5.47801C22.8786 5.56451 22.0561 6.52732 22.1426 7.6285C22.2291 8.72968 23.1919 9.55223 24.2931 9.46572Z"
        fill="white" />
    <path
        d="M23.4632 14.5152C23.9866 15.1773 24.869 15.441 25.6696 15.1745L28.9105 14.0883L28.277 12.1921L25.0361 13.2783L23.4995 11.3256C23.1708 10.9091 22.1342 10.0346 21.0338 10.6727C21.0389 10.6613 20.7159 10.8662 20.0246 12.3318L15.6181 21.1811L11.1977 21.5284L11.3544 23.5223L15.7748 23.175C16.4706 23.1203 17.0965 22.698 17.4085 22.0727L19.0703 18.7363L24.3044 19.3623L26.5415 24.6523L28.3821 23.8727L26.146 18.5836C25.8654 17.9226 25.2535 17.4621 24.5405 17.3757L21.4633 17.0085L22.9985 13.9248L23.4632 14.5152Z"
        fill="white" />
    <path
        d="M19.5173 10.3529C19.5848 10.0038 19.5976 8.86238 16.8057 9.05437C14.3473 9.22341 13.7268 12.7994 13.5702 14.5939C13.5153 15.222 13.8367 15.8096 14.3659 16.1524C15.2998 16.7574 16.5524 16.4121 17.0446 15.4141L19.446 10.5443C19.4764 10.4828 19.5043 10.4202 19.5173 10.3529Z"
        fill="white" />
    <line x1="27.9177" y1="11.0744" x2="31.9266" y2="23.7995" stroke="white" />
</svg>